<?xml version="1.0" encoding="UTF-8" standalone="no"?>
<!-- Created with Inkscape (http://www.inkscape.org/) -->

<svg
   width="117.85473mm"
   height="108.94498mm"
   viewBox="0 0 117.85473 108.94497"
   version="1.1"
   id="svg1"
   inkscape:version="1.3.2 (091e20e, 2023-11-25)"
   sodipodi:docname="trillfa-studio-logo.svg"
   xml:space="preserve"
   xmlns:inkscape="http://www.inkscape.org/namespaces/inkscape"
   xmlns:sodipodi="http://sodipodi.sourceforge.net/DTD/sodipodi-0.dtd"
   xmlns="http://www.w3.org/2000/svg"
   xmlns:svg="http://www.w3.org/2000/svg"><sodipodi:namedview
     id="namedview1"
     pagecolor="#505050"
     bordercolor="#eeeeee"
     borderopacity="1"
     inkscape:showpageshadow="0"
     inkscape:pageopacity="0"
     inkscape:pagecheckerboard="0"
     inkscape:deskcolor="#505050"
     inkscape:document-units="mm"
     inkscape:zoom="1.552143"
     inkscape:cx="231.61525"
     inkscape:cy="143.02806"
     inkscape:window-width="1334"
     inkscape:window-height="736"
     inkscape:window-x="32"
     inkscape:window-y="0"
     inkscape:window-maximized="1"
     inkscape:current-layer="layer1" /><defs
     id="defs1"><inkscape:path-effect
       effect="bool_op"
       operand-path="#path25"
       id="path-effect33"
       is_visible="true"
       lpeversion="1"
       operation="diff"
       swap-operands="false"
       filltype-this="from-curve"
       filter=""
       filltype-operand="from-curve" /><inkscape:path-effect
       effect="bool_op"
       operand-path="#path26"
       id="path-effect31"
       is_visible="true"
       lpeversion="1"
       operation="diff"
       swap-operands="false"
       filltype-this="from-curve"
       filter=""
       filltype-operand="from-curve" /><inkscape:path-effect
       effect="bool_op"
       operand-path="#path21"
       id="path-effect29"
       is_visible="true"
       lpeversion="1"
       operation="diff"
       swap-operands="false"
       filltype-this="from-curve"
       filter=""
       filltype-operand="from-curve" /><inkscape:path-effect
       effect="bool_op"
       operand-path="#path22"
       id="path-effect27"
       is_visible="true"
       lpeversion="1"
       operation="diff"
       swap-operands="false"
       filltype-this="from-curve"
       filter=""
       filltype-operand="from-curve" /><inkscape:path-effect
       effect="fillet_chamfer"
       id="path-effect19"
       is_visible="true"
       lpeversion="1"
       nodesatellites_param="F,0,1,1,0,1.3229167,0,1 @ F,0,1,1,0,1.3229167,0,1 @ F,0,1,1,0,1.3229167,0,1 @ F,0,0,1,0,0,0,1 @ F,0,1,1,0,1.3229167,0,1 @ F,0,1,1,0,1.3229167,0,1 @ F,0,0,1,0,0,0,1 @ F,0,1,1,0,1.3229167,0,1 | F,0,0,1,0,0,0,1 @ F,0,0,1,0,0,0,1 @ F,0,0,1,0,0,0,1 @ F,0,0,1,0,0,0,1 @ F,0,0,1,0,0,0,1 @ F,0,0,1,0,0,0,1 @ F,0,0,1,0,0,0,1 | F,0,0,1,0,0,0,1 @ F,0,1,1,0,1.3229167,0,1 @ F,0,1,1,0,1.3229167,0,1 @ F,0,1,1,0,1.3229167,0,1 @ F,0,0,1,0,0,0,1 @ F,0,0,1,0,0,0,1 @ F,0,0,1,0,0,0,1 @ F,0,0,1,0,0,0,1 @ F,0,0,1,0,0,0,1 @ F,0,0,1,0,0,0,1 @ F,0,0,1,0,0,0,1 @ F,0,1,1,0,1.3229167,0,1 @ F,0,1,1,0,1.3229167,0,1 @ F,0,0,1,0,0,0,1 @ F,0,0,1,0,0,0,1 @ F,0,0,1,0,0,0,1 | F,0,1,1,0,1.3229167,0,1 @ F,0,1,1,0,1.3229167,0,1 @ F,0,1,1,0,1.3229167,0,1 @ F,0,1,1,0,1.3229167,0,1 | F,0,1,1,0,1.3229167,0,1 @ F,0,1,1,0,1.3229167,0,1 @ F,0,0,1,0,0,0,1 @ F,0,1,1,0,1.3229167,0,1 @ F,0,1,1,0,1.3229167,0,1 @ F,0,1,1,0,1.3229167,0,1 | F,0,1,1,0,1.3229167,0,1 @ F,0,1,1,0,1.3229167,0,1 @ F,0,0,1,0,0,0,1 @ F,0,1,1,0,1.3229167,0,1 @ F,0,1,1,0,1.3229167,0,1 @ F,0,1,1,0,1.3229167,0,1 | F,0,1,1,0,1.3229167,0,1 @ F,0,1,1,0,1.3229167,0,1 @ F,0,1,1,0,1.3229167,0,1 @ F,0,0,1,0,0,0,1 @ F,0,0,1,0,0,0,1 @ F,0,1,1,0,1.3229167,0,1 @ F,0,1,1,0,1.3229167,0,1 @ F,0,0,1,0,0,0,1 @ F,0,1,1,0,1.3229167,0,1 @ F,0,1,1,0,1.3229167,0,1 | F,0,0,1,0,0,0,1 @ F,0,0,1,0,0,0,1 @ F,0,1,1,0,1.3229167,0,1 @ F,0,1,1,0,1.3229167,0,1 @ F,0,1,1,0,1.3229167,0,1 @ F,0,1,1,0,1.3229167,0,1 @ F,0,1,1,0,1.3229167,0,1 @ F,0,1,1,0,1.3229167,0,1 | F,0,0,1,0,0,0,1 @ F,0,0,1,0,0,0,1 @ F,0,0,1,0,0,0,1"
       radius="5"
       unit="px"
       method="auto"
       mode="F"
       chamfer_steps="1"
       flexible="false"
       use_knot_distance="true"
       apply_no_radius="true"
       apply_with_radius="true"
       only_selected="true"
       hide_knots="false" /><inkscape:path-effect
       effect="bool_op"
       operand-path="#text2"
       id="path-effect17"
       is_visible="true"
       lpeversion="1"
       operation="symdiff"
       swap-operands="false"
       filltype-this="from-curve"
       filter=""
       filltype-operand="from-curve" /><inkscape:path-effect
       effect="fillet_chamfer"
       id="path-effect16"
       is_visible="true"
       lpeversion="1"
       nodesatellites_param="F,0,1,1,0,1.3229167,0,1 @ F,0,1,1,0,1.3229167,0,1 @ F,0,1,1,0,1.3229167,0,1 @ F,0,0,1,0,0,0,1 @ F,0,1,1,0,1.3229167,0,1 @ F,0,1,1,0,1.3229167,0,1 @ F,0,0,1,0,0,0,1 @ F,0,1,1,0,1.3229167,0,1 | F,0,0,1,0,0,0,1 @ F,0,0,1,0,0,0,1 @ F,0,0,1,0,0,0,1 @ F,0,0,1,0,0,0,1 @ F,0,0,1,0,0,0,1 @ F,0,0,1,0,0,0,1 @ F,0,0,1,0,0,0,1 | F,0,0,1,0,0,0,1 @ F,0,1,1,0,1.3229167,0,1 @ F,0,1,1,0,1.3229167,0,1 @ F,0,1,1,0,1.3229167,0,1 @ F,0,0,1,0,0,0,1 @ F,0,0,1,0,0,0,1 @ F,0,0,1,0,0,0,1 @ F,0,0,1,0,0,0,1 @ F,0,0,1,0,0,0,1 @ F,0,0,1,0,0,0,1 @ F,0,0,1,0,0,0,1 @ F,0,1,1,0,1.3229167,0,1 @ F,0,1,1,0,1.3229167,0,1 @ F,0,0,1,0,0,0,1 @ F,0,0,1,0,0,0,1 @ F,0,0,1,0,0,0,1 | F,0,1,1,0,1.3229167,0,1 @ F,0,1,1,0,1.3229167,0,1 @ F,0,1,1,0,1.3229167,0,1 @ F,0,1,1,0,1.3229167,0,1 | F,0,1,1,0,1.3229167,0,1 @ F,0,1,1,0,1.3229167,0,1 @ F,0,0,1,0,0,0,1 @ F,0,1,1,0,1.3229167,0,1 @ F,0,1,1,0,1.3229167,0,1 @ F,0,1,1,0,1.3229167,0,1 | F,0,1,1,0,1.3229167,0,1 @ F,0,1,1,0,1.3229167,0,1 @ F,0,0,1,0,0,0,1 @ F,0,1,1,0,1.3229167,0,1 @ F,0,1,1,0,1.3229167,0,1 @ F,0,1,1,0,1.3229167,0,1 | F,0,1,1,0,1.3229167,0,1 @ F,0,1,1,0,1.3229167,0,1 @ F,0,1,1,0,1.3229167,0,1 @ F,0,0,1,0,0,0,1 @ F,0,0,1,0,0,0,1 @ F,0,1,1,0,1.3229167,0,1 @ F,0,1,1,0,1.3229167,0,1 @ F,0,0,1,0,0,0,1 @ F,0,1,1,0,1.3229167,0,1 @ F,0,1,1,0,1.3229167,0,1 | F,0,0,1,0,0,0,1 @ F,0,0,1,0,0,0,1 @ F,0,1,1,0,1.3229167,0,1 @ F,0,1,1,0,1.3229167,0,1 @ F,0,1,1,0,1.3229167,0,1 @ F,0,1,1,0,1.3229167,0,1 @ F,0,1,1,0,1.3229167,0,1 @ F,0,1,1,0,1.3229167,0,1 | F,0,0,1,0,0,0,1 @ F,0,0,1,0,0,0,1 @ F,0,0,1,0,0,0,1"
       radius="5"
       unit="px"
       method="auto"
       mode="F"
       chamfer_steps="1"
       flexible="false"
       use_knot_distance="true"
       apply_no_radius="true"
       apply_with_radius="true"
       only_selected="true"
       hide_knots="false" /><inkscape:path-effect
       effect="construct_grid"
       id="path-effect15"
       is_visible="true"
       lpeversion="1"
       nr_x="5"
       nr_y="5" /><inkscape:path-effect
       effect="bool_op"
       operand-path="#path11-6"
       id="path-effect14"
       is_visible="true"
       lpeversion="1"
       operation="diff"
       swap-operands="false"
       filltype-this="from-curve"
       filter=""
       filltype-operand="from-curve" /><inkscape:path-effect
       effect="bool_op"
       operand-path="#rect5"
       id="path-effect13"
       is_visible="true"
       lpeversion="1"
       operation="diff"
       swap-operands="false"
       filltype-this="from-curve"
       filter=""
       filltype-operand="from-curve" /><inkscape:path-effect
       effect="bool_op"
       operand-path="#path11"
       id="path-effect12"
       is_visible="true"
       lpeversion="1"
       operation="diff"
       swap-operands="false"
       filltype-this="from-curve"
       filter=""
       filltype-operand="from-curve" /><inkscape:path-effect
       effect="bool_op"
       operand-path="#rect5-5"
       id="path-effect11"
       is_visible="true"
       lpeversion="1"
       operation="diff"
       swap-operands="false"
       filltype-this="from-curve"
       filter=""
       filltype-operand="from-curve" /><inkscape:path-effect
       effect="bool_op"
       operand-path="#rect5-5"
       id="path-effect10"
       is_visible="true"
       lpeversion="1"
       operation="diff"
       swap-operands="false"
       filltype-this="from-curve"
       filter=""
       filltype-operand="from-curve" /><inkscape:path-effect
       effect="bool_op"
       operand-path="#rect5"
       id="path-effect9"
       is_visible="true"
       lpeversion="1"
       operation="diff"
       swap-operands="false"
       filltype-this="from-curve"
       filter=""
       filltype-operand="from-curve" /><inkscape:path-effect
       effect="bool_op"
       operand-path=""
       id="path-effect8"
       is_visible="true"
       lpeversion="1"
       operation="diff"
       swap-operands="false"
       filltype-this="from-curve"
       filter=""
       filltype-operand="from-curve" /><inkscape:path-effect
       effect="slice"
       start_point="392.60706,170.97101"
       end_point="287.60706,170.97101"
       center_point="340.10706,170.97101"
       id="path-effect5"
       is_visible="true"
       lpeversion="1.2"
       lpesatellites=""
       allow_transforms="true" /><inkscape:path-effect
       effect="knot"
       id="path-effect4"
       is_visible="true"
       lpeversion="1"
       switcher_size="15"
       interruption_width="3.7"
       prop_to_stroke_width="true"
       add_stroke_width="inkscape_1.0_and_up"
       both="true"
       inverse_width="false"
       add_other_stroke_width="inkscape_1.0_and_up"
       crossing_points_vector="" /><inkscape:path-effect
       effect="knot"
       id="path-effect3"
       is_visible="true"
       lpeversion="1"
       switcher_size="15"
       interruption_width="5.5"
       prop_to_stroke_width="true"
       add_stroke_width="inkscape_1.0_and_up"
       both="true"
       inverse_width="false"
       add_other_stroke_width="inkscape_1.0_and_up"
       crossing_points_vector="" /><filter
       id="selectable_hidder_filter"
       width="1"
       height="1"
       x="0"
       y="0"
       style="color-interpolation-filters:sRGB"
       inkscape:label="LPE boolean visibility"><feComposite
         id="boolops_hidder_primitive"
         result="composite1"
         operator="arithmetic"
         in2="SourceGraphic"
         in="BackgroundImage"
         k1="0"
         k2="0"
         k3="0"
         k4="0" /></filter><inkscape:path-effect
       effect="bool_op"
       operand-path="#rect3"
       id="path-effect2"
       is_visible="true"
       lpeversion="1"
       operation="diff"
       swap-operands="false"
       filltype-this="from-curve"
       filter=""
       filltype-operand="from-curve" /><filter
       id="selectable_hidder_filter-3"
       width="1"
       height="1"
       x="0"
       y="0"
       style="color-interpolation-filters:sRGB"
       inkscape:label="LPE boolean visibility"><feComposite
         id="boolops_hidder_primitive-5"
         result="composite1"
         operator="arithmetic"
         in2="SourceGraphic"
         in="BackgroundImage"
         k1="0"
         k2="0"
         k3="0"
         k4="0" /></filter><filter
       id="selectable_hidder_filter-37"
       width="1"
       height="1"
       x="0"
       y="0"
       style="color-interpolation-filters:sRGB"
       inkscape:label="LPE boolean visibility"><feComposite
         id="boolops_hidder_primitive-3"
         result="composite1"
         operator="arithmetic"
         in2="SourceGraphic"
         in="BackgroundImage"
         k1="0"
         k2="0"
         k3="0"
         k4="0" /></filter></defs><g
     inkscape:groupmode="layer"
     id="layer2"
     inkscape:label="hidden"
     style="display:none"
     sodipodi:insensitive="true"
     transform="translate(3.7162492,1.7693282)"><path
       style="fill:#008f3e;fill-opacity:1;stroke:none;stroke-width:4.77447;stroke-dasharray:none"
       d="m 312.72658,138.8795 c -5.21117,4.45028 -9.32525,10.14761 -11.88029,16.63003 h 78.52137 c -0.84266,-2.13811 -1.85495,-4.19081 -3.02029,-6.14153 l -53.16924,0 c -5.757,0 -10.45162,-4.69462 -10.45162,-10.45161 0,-0.0123 3e-5,-0.0246 7e-5,-0.0369 z m 61.0464,6.66892 c -1.73699,-2.29657 -3.70357,-4.40983 -5.8656,-6.30565 l -21.58054,0 c -1.05484,2.1e-4 -1.91157,-0.85495 -1.91165,-1.90979 7e-5,-1.05484 0.85681,-1.91 1.91165,-1.90979 l 16.50188,0 c -6.55823,-4.20044 -14.3556,-6.63577 -22.72174,-6.63577 -8.271,0 -15.98598,2.38026 -22.49734,6.49315 -0.67424,1.03837 -1.06355,2.28458 -1.06355,3.63582 0,3.70701 2.92502,6.63203 6.63204,6.63203 z"
       transform="matrix(1.0472368,0,0,1.0472368,-489.40887,-132.40218)"
       id="path19"
       inkscape:path-effect="#path-effect27"
       inkscape:original-d="m 379.36731,155.50962 c -6.16736,-15.64861 -21.42012,-26.7221 -39.2599,-26.7221 -17.83977,0 -33.09363,11.07349 -39.2615,26.7221 z" /><path
       style="fill:#008f3e;fill-opacity:1;stroke:none;stroke-width:4.77447;stroke-dasharray:none"
       d="m 361.72164,207.20062 -15.39666,0 c -1.05484,2.1e-4 -1.90971,-0.85494 -1.90979,-1.90978 7e-5,-1.05485 0.85495,-1.91 1.90979,-1.90979 h 20.77789 c 2.29035,-1.91064 4.37517,-4.05944 6.21651,-6.40824 h -55.31297 c -6.08652,0 -11.055,-4.60813 -11.62845,-10.53926 h -5.53167 c 6.16828,15.64824 21.42156,26.7221 39.26069,26.7221 7.90141,0 15.29398,-2.17375 21.61466,-5.95503 z m 9.57978,-20.76707 c -1.05484,-2.1e-4 -1.90972,0.85494 -1.90979,1.90978 8e-5,1.05484 0.85495,1.91 1.90979,1.90979 h 6.32804 c 0.63835,-1.23975 1.22102,-2.51216 1.73634,-3.81957 z"
       transform="matrix(1.0472368,0,0,1.0472368,-489.40887,-132.40218)"
       id="path20"
       inkscape:path-effect="#path-effect29;#path-effect31"
       inkscape:original-d="m 300.84654,186.43364 c 6.16829,15.64827 21.42171,26.72211 39.26087,26.72211 17.83917,0 33.0915,-11.07384 39.25927,-26.72211 z" /><path
       style="fill:#000000;fill-opacity:1;stroke:none;stroke-width:4.99999;stroke-linecap:round;stroke-dasharray:none;stroke-opacity:1;filter:url(#selectable_hidder_filter)"
       id="path21"
       width="91.678322"
       height="53.865257"
       x="304.72473"
       y="144.33586"
       ry="12.238243"
       sodipodi:type="rect"
       d="m 395.25454,191.16396 h -22.47959 c -1.10467,2.2e-4 -1.99992,-0.89533 -2,-2 7e-5,-1.10467 0.89533,-2.00022 2,-2 h 23.57124 c 0.0382,-0.39507 0.0577,-0.79576 0.0577,-1.20117 v -29.38867 c 0,-6.77998 -5.4583,-12.23828 -12.23828,-12.23828 h -67.20313 c -6.77998,0 -12.23828,5.4583 -12.23828,12.23828 v 29.38867 c 0,6.77998 5.4583,12.23828 12.23828,12.23828 h 67.20313 c 4.91801,0 9.1406,-2.87197 11.08896,-7.03711 z"
       inkscape:path-effect="#path-effect33"
       transform="translate(-473.34331,-124.32607)" /><path
       id="path22"
       style="color:#000000;fill:#000000;fill-opacity:1;stroke-linecap:round;-inkscape-stroke:none;filter:url(#selectable_hidder_filter)"
       d="m 320.48759,126.63262 c -5.1312,0.90158 -9.05423,5.38688 -9.05423,10.76988 0,6.02894 4.91665,10.94507 10.94559,10.94507 h 59.73227 v -3.99975 h -59.73227 c -3.88213,0 -6.94532,-3.06319 -6.94532,-6.94532 0,-3.22346 2.11485,-5.87596 5.05396,-6.68538 z m 26.13225,7.11171 c -1.10467,-2.2e-4 -2.00032,0.89521 -2.00039,1.99988 8e-5,1.10467 0.89572,2.00009 2.00039,1.99987 h 62.43857 c 1.10467,2.2e-4 2.00032,-0.8952 2.00039,-1.99987 -7e-5,-1.10467 -0.89572,-2.0001 -2.00039,-1.99988 z"
       sodipodi:nodetypes="cssccssccccccccc"
       transform="translate(-473.34331,-124.32607)" /><path
       id="path23"
       style="fill:none;stroke:#008f3e;stroke-width:5;stroke-linecap:round;stroke-dasharray:none;stroke-opacity:1"
       d="m 198.67242,147.30357 c -7.13272,-19.0384 -25.48678,-32.59395 -47.01271,-32.59395 -21.52593,0 -39.87998,13.55555 -47.01269,32.59395 m 0,35.21841 c 7.13271,19.03841 25.48676,32.59395 47.01269,32.59395 21.52593,0 39.87999,-13.55554 47.01271,-32.59395"
       sodipodi:nodetypes="csccsc"
       transform="translate(-284.89595,-118.26784)" /><path
       id="path24"
       style="fill:#008f3e;fill-opacity:1;stroke:none;stroke-width:5;stroke-dasharray:none;stroke-opacity:1"
       d="m 103.95565,152.4231 c -4.1589,0 -7.50704,3.34814 -7.50704,7.50704 v 9.96528 c 0,4.1589 3.34814,7.50703 7.50704,7.50703 h 95.40813 c 4.1589,0 7.50703,-3.34813 7.50703,-7.50703 v -9.96528 c 0,-4.1589 -3.34813,-7.50704 -7.50703,-7.50704 z m -0.60978,5.39864 h 10.4252 a 1.3229167,1.3229167 0 0 1 1.32292,1.32291 v 0.11834 a 1.3229167,1.3229167 0 0 1 -1.32292,1.32292 h -3.37912 v 10.09499 a 1.3229167,1.3229167 0 0 1 -1.32292,1.32292 h -1.01131 a 1.3229167,1.3229167 0 0 1 -1.32291,-1.32292 v -10.09499 h -3.38894 a 1.3229167,1.3229167 0 0 1 -1.32292,-1.32292 v -0.11834 a 1.3229167,1.3229167 0 0 1 1.32292,-1.32291 z m 17.13952,0 h 4.26227 c 1.86819,0 3.23603,0.31356 4.10363,0.94051 0.87393,0.62694 1.31103,1.61771 1.31103,2.97294 0,0.93726 -0.22772,1.70677 -0.68368,2.30839 -0.44964,0.60162 -1.13033,1.04517 -2.04225,1.33015 0.50029,0.11399 0.9463,0.37346 1.33893,0.77876 0.39897,0.39897 0.80135,1.00673 1.20665,1.82367 l 1.40043,2.84117 a 0.82280405,0.82280405 0 0 1 -0.73794,1.18649 h -1.24902 a 2.1225087,2.1225087 0 0 1 -1.90531,-1.18753 L 126.34395,168.48 c -0.34831,-0.70928 -0.70305,-1.19401 -1.06402,-1.45366 -0.35464,-0.25964 -0.82995,-0.38964 -1.42524,-0.38964 h -1.03508 v 4.0442 a 1.3229167,1.3229167 0 0 1 -1.32291,1.32292 h -1.01131 a 1.3229167,1.3229167 0 0 1 -1.32292,-1.32292 v -11.53625 a 1.3229167,1.3229167 0 0 1 1.32292,-1.32291 z m 17.15812,0 h 1.01131 a 1.3229167,1.3229167 0 0 1 1.32292,1.32291 v 11.53625 a 1.3229167,1.3229167 0 0 1 -1.32292,1.32292 h -1.01131 a 1.3229167,1.3229167 0 0 1 -1.32291,-1.32292 v -11.53625 a 1.3229167,1.3229167 0 0 1 1.32291,-1.32291 z m 9.41648,0 h 1.01131 a 1.3229167,1.3229167 0 0 1 1.32292,1.32291 v 10.09499 h 5.09839 a 1.3229167,1.3229167 0 0 1 1.32292,1.32292 v 0.11834 a 1.3229167,1.3229167 0 0 1 -1.32292,1.32292 h -7.43262 a 1.3229167,1.3229167 0 0 1 -1.32291,-1.32292 v -11.53625 a 1.3229167,1.3229167 0 0 1 1.32291,-1.32291 z m 14.57431,0 h 1.01131 a 1.3229167,1.3229167 0 0 1 1.32291,1.32291 v 10.09499 h 5.09892 a 1.3229167,1.3229167 0 0 1 1.32291,1.32292 v 0.11834 a 1.3229167,1.3229167 0 0 1 -1.32291,1.32292 h -7.43314 a 1.3229167,1.3229167 0 0 1 -1.32292,-1.32292 v -11.53625 a 1.3229167,1.3229167 0 0 1 1.32292,-1.32291 z m 14.57482,0 h 7.22385 a 1.3229167,1.3229167 0 0 1 1.32291,1.32291 v 0.11834 a 1.3229167,1.3229167 0 0 1 -1.32291,1.32292 h -4.88963 v 2.64066 h 4.51911 a 1.3229167,1.3229167 0 0 1 1.32291,1.32292 v 0.11834 a 1.3229167,1.3229167 0 0 1 -1.32291,1.32292 h -4.51911 v 4.69015 a 1.3229167,1.3229167 0 0 1 -1.32291,1.32292 h -1.01131 a 1.3229167,1.3229167 0 0 1 -1.32292,-1.32292 v -11.53625 a 1.3229167,1.3229167 0 0 1 1.32292,-1.32291 z m 16.79691,0 h 1.71462 a 1.9007511,1.9007511 0 0 1 1.78232,1.24023 l 4.3341,11.70161 a 0.92074579,0.92074579 0 0 1 -0.86351,1.24024 h -1.03043 a 1.8568717,1.8568717 0 0 1 -1.75493,-1.25006 L 196.72725,169.42 h -5.71852 l -0.46612,1.3348 a 1.8633321,1.8633321 0 0 1 -1.75906,1.24902 h -1.03043 a 0.92074579,0.92074579 0 0 1 -0.86352,-1.24024 l 4.33411,-11.70161 a 1.9007511,1.9007511 0 0 1 1.78232,-1.24023 z m -70.18642,2.64996 v 3.63854 h 1.53893 c 0.76628,0 1.314,-0.14239 1.64331,-0.42736 0.33564,-0.28498 0.50333,-0.75383 0.50333,-1.40612 0,-0.64594 -0.16769,-1.10835 -0.50333,-1.38699 -0.32931,-0.27865 -0.87703,-0.41807 -1.64331,-0.41807 z m 71.04838,0.67438 -1.94717,5.64255 h 3.88504 z"
       transform="translate(-284.89595,-118.26784)" /><text
       xml:space="preserve"
       style="font-style:normal;font-variant:normal;font-weight:normal;font-stretch:normal;font-size:8.17066px;font-family:C059;-inkscape-font-specification:'C059, Normal';font-variant-ligatures:normal;font-variant-caps:normal;font-variant-numeric:normal;font-variant-east-asian:normal;letter-spacing:0.914711px;fill:#008f3e;fill-opacity:1;stroke:none;stroke-width:4.99999;stroke-dasharray:none;stroke-opacity:1"
       x="132.62312"
       y="187.12761"
       id="text24"
       transform="translate(-284.89595,-118.26784)"><tspan
         sodipodi:role="line"
         id="tspan24"
         style="font-style:normal;font-variant:normal;font-weight:normal;font-stretch:normal;font-size:8.17066px;font-family:C059;-inkscape-font-specification:'C059, Normal';font-variant-ligatures:normal;font-variant-caps:normal;font-variant-numeric:normal;font-variant-east-asian:normal;letter-spacing:0.914711px;fill:#008f3e;fill-opacity:1;stroke-width:5"
         x="132.62312"
         y="187.12761">STUDIO</tspan></text><path
       style="color:#000000;fill:#000000;fill-opacity:1;stroke-linecap:round;-inkscape-stroke:none;filter:url(#selectable_hidder_filter)"
       d="m 372.77482,187.16406 c -1.10467,-2.2e-4 -2.00032,0.89521 -2.00039,1.99988 8e-5,1.10467 0.89572,2.00009 2.00039,1.99987 h 62.43857 c 1.10467,2.2e-4 2.00032,-0.8952 2.00039,-1.99987 -7e-5,-1.10467 -0.89572,-2.0001 -2.00039,-1.99988 z"
       id="path25"
       sodipodi:nodetypes="ccccccc"
       transform="translate(-473.34331,-124.32607)" /><path
       style="color:#000000;font-variation-settings:normal;opacity:1;vector-effect:none;fill:#535353;fill-opacity:1;stroke:none;stroke-width:5;stroke-linecap:butt;stroke-linejoin:miter;stroke-miterlimit:4;stroke-dasharray:none;stroke-dashoffset:0;stroke-opacity:1;-inkscape-stroke:none;filter:url(#selectable_hidder_filter);stop-color:#000000;stop-opacity:1"
       d="m 346.61953,204.91241 c -1.10467,-2.2e-4 -2.00032,0.89521 -2.00039,1.99988 8e-5,1.10467 0.89572,2.00009 2.00039,1.99987 h 66.42069 c 1.10467,2.2e-4 2.00032,-0.8952 2.00039,-1.99987 -7e-5,-1.10467 -0.89572,-2.0001 -2.00039,-1.99988 z"
       id="path26"
       sodipodi:nodetypes="ccccccc"
       transform="translate(-473.34331,-124.32607)" /><text
       xml:space="preserve"
       style="font-style:normal;font-variant:normal;font-weight:bold;font-stretch:normal;font-size:20.4904px;font-family:'DejaVu Sans';-inkscape-font-specification:'DejaVu Sans, Bold';font-variant-ligatures:normal;font-variant-caps:normal;font-variant-numeric:normal;font-variant-east-asian:normal;letter-spacing:2.29392px;fill:#ff002c;fill-opacity:1;stroke:none;stroke-width:4.99999;stroke-dasharray:none;stroke-opacity:1"
       x="415.40479"
       y="98.128525"
       id="text14"
       transform="translate(-284.89595,-118.26784)"><tspan
         sodipodi:role="line"
         id="tspan14"
         style="font-style:normal;font-variant:normal;font-weight:bold;font-stretch:normal;font-size:20.4904px;font-family:'DejaVu Sans';-inkscape-font-specification:'DejaVu Sans, Bold';font-variant-ligatures:normal;font-variant-caps:normal;font-variant-numeric:normal;font-variant-east-asian:normal;letter-spacing:2.29392px;fill:#ff002c;fill-opacity:1;stroke-width:5"
         x="415.40479"
         y="98.128525">TRILLFA</tspan></text><path
       style="font-weight:bold;font-size:19.4545px;font-family:'DejaVu Sans';-inkscape-font-specification:'DejaVu Sans, Bold';letter-spacing:2.17795px;fill:#ff002c;fill-opacity:1;stroke-width:5"
       d="m 291.79325,163.87979 h 10.42515 a 1.3229167,1.3229167 45 0 1 1.32292,1.32292 v 0.11845 a 1.3229167,1.3229167 135 0 1 -1.32292,1.32292 l -3.37922,0 v 10.09519 a 1.3229167,1.3229167 135 0 1 -1.32292,1.32292 h -1.01137 a 1.3229167,1.3229167 45 0 1 -1.32292,-1.32292 v -10.09519 h -3.38872 a 1.3229167,1.3229167 45 0 1 -1.32292,-1.32292 v -0.11845 a 1.3229167,1.3229167 135 0 1 1.32292,-1.32292 z m 21.01247,6.28851 c 0.76628,0 1.31407,-0.14249 1.64338,-0.42746 0.33564,-0.28498 0.50346,-0.75361 0.50346,-1.4059 0,-0.64595 -0.16782,-1.10824 -0.50346,-1.38689 -0.32931,-0.27865 -0.8771,-0.41797 -1.64338,-0.41797 h -1.53888 v 3.63822 z m -1.53888,2.52681 v 4.04416 a 1.3229167,1.3229167 135 0 1 -1.32292,1.32292 h -1.01137 a 1.3229167,1.3229167 45 0 1 -1.32292,-1.32292 v -11.53656 a 1.3229167,1.3229167 135 0 1 1.32292,-1.32292 h 4.26264 c 1.86819,0 3.23609,0.31348 4.10369,0.94043 0.87393,0.62695 1.3109,1.61804 1.3109,2.97327 0,0.93726 -0.22798,1.7067 -0.68395,2.30832 -0.44963,0.60162 -1.13041,1.04492 -2.04234,1.3299 0.50029,0.11399 0.94676,0.37363 1.33939,0.77894 0.39897,0.39897 0.80111,1.00692 1.20641,1.82386 l 1.40045,2.84109 a 0.82280405,0.82280405 121.88005 0 1 -0.73802,1.18659 h -1.24886 a 2.1225087,2.1225087 31.934452 0 1 -1.90557,-1.1877 l -1.14622,-2.33652 c -0.34831,-0.70928 -0.70295,-1.19374 -1.06392,-1.45339 -0.35464,-0.25965 -0.8296,-0.38947 -1.42489,-0.38947 z m 14.824,-8.81532 h 1.01138 a 1.3229167,1.3229167 45 0 1 1.32292,1.32292 v 11.53656 a 1.3229167,1.3229167 135 0 1 -1.32292,1.32292 l -1.01138,0 a 1.3229167,1.3229167 45 0 1 -1.32292,-1.32292 v -11.53656 a 1.3229167,1.3229167 135 0 1 1.32292,-1.32292 z m 9.41639,0 h 1.01138 a 1.3229167,1.3229167 45 0 1 1.32292,1.32292 v 10.0952 h 5.09858 a 1.3229167,1.3229167 45 0 1 1.32292,1.32292 v 0.11844 a 1.3229167,1.3229167 135 0 1 -1.32292,1.32292 h -7.43288 a 1.3229167,1.3229167 45 0 1 -1.32292,-1.32292 l 0,-11.53656 a 1.3229167,1.3229167 135 0 1 1.32292,-1.32292 z m 14.57449,0 h 1.01138 a 1.3229167,1.3229167 45 0 1 1.32292,1.32292 v 10.0952 h 5.09859 a 1.3229167,1.3229167 45 0 1 1.32292,1.32292 v 0.11844 a 1.3229167,1.3229167 135 0 1 -1.32292,1.32292 l -7.43289,0 a 1.3229167,1.3229167 45 0 1 -1.32292,-1.32292 v -11.53656 a 1.3229167,1.3229167 135 0 1 1.32292,-1.32292 z m 14.5745,0 h 7.2239 a 1.3229167,1.3229167 45 0 1 1.32292,1.32292 v 0.11845 a 1.3229167,1.3229167 135 0 1 -1.32292,1.32292 l -4.8896,0 v 2.64079 h 4.51913 a 1.3229167,1.3229167 45 0 1 1.32292,1.32292 v 0.11845 a 1.3229167,1.3229167 135 0 1 -1.32292,1.32292 l -4.51913,0 v 4.69011 a 1.3229167,1.3229167 135 0 1 -1.32292,1.32292 h -1.01138 a 1.3229167,1.3229167 45 0 1 -1.32292,-1.32292 l 0,-11.53656 a 1.3229167,1.3229167 135 0 1 1.32292,-1.32292 z m 20.51852,11.5986 h -5.71856 l -0.46622,1.33487 a 1.8633321,1.8633321 144.62625 0 1 -1.75913,1.24893 h -1.03038 a 0.92074579,0.92074579 55.162207 0 1 -0.86342,-1.24055 l 4.3341,-11.7013 a 1.9007511,1.9007511 145.16221 0 1 1.78242,-1.24055 h 1.71432 a 1.9007511,1.9007511 34.837793 0 1 1.78242,1.24055 l 4.3341,11.7013 a 0.92074579,0.92074579 124.83779 0 1 -0.86342,1.24055 h -1.03038 a 1.8568717,1.8568717 35.467735 0 1 -1.75503,-1.25036 z m -4.80663,-2.63129 h 3.8852 l -1.93785,-5.64257 z"
       id="path17"
       aria-label="TRILLFA"
       inkscape:path-effect="#path-effect19"
       inkscape:original-d="m 290.47033,163.87979 h 13.07099 v 2.76429 h -4.70214 v 11.41811 h -3.65721 v -11.41811 h -4.71164 z m 22.33539,6.28851 q 1.14942,0 1.64338,-0.42746 0.50346,-0.42747 0.50346,-1.4059 0,-0.96892 -0.50346,-1.38689 -0.49396,-0.41797 -1.64338,-0.41797 h -1.53888 v 3.63822 z m -1.53888,2.52681 v 5.36708 h -3.65721 v -14.1824 h 5.58556 q 2.80229,0 4.10369,0.94043 1.3109,0.94042 1.3109,2.97327 0,1.40589 -0.68395,2.30832 -0.67445,0.90243 -2.04234,1.3299 0.75044,0.17098 1.33939,0.77894 0.59846,0.59845 1.20641,1.82386 l 1.98535,4.02768 h -3.8947 l -1.72887,-3.52422 q -0.52246,-1.06392 -1.06392,-1.45339 -0.53196,-0.38947 -1.42489,-0.38947 z m 13.50108,-8.81532 h 3.65722 v 14.1824 h -3.65722 z m 9.41639,0 h 3.65722 v 11.41812 h 6.4215 v 2.76428 h -10.07872 z m 14.57449,0 h 3.65722 v 11.41812 h 6.42151 v 2.76428 H 348.7588 Z m 14.5745,0 h 9.86974 v 2.76429 h -6.21252 v 2.64079 h 5.84205 v 2.76429 h -5.84205 v 6.01303 h -3.65722 z m 21.84144,11.5986 h -5.71856 l -0.90243,2.5838 h -3.67622 l 5.2531,-14.1824 h 4.36016 l 5.2531,14.1824 h -3.67622 z m -4.80663,-2.63129 h 3.8852 l -1.93785,-5.64257 z"
       transform="translate(-152.84664,-178.76244)" /></g><g
     inkscape:label="Layer 1"
     inkscape:groupmode="layer"
     id="layer1"
     transform="translate(-281.17971,-116.4985)"><circle
       style="opacity:1;vector-effect:non-scaling-stroke;fill:#ffffff;fill-opacity:1;stroke:none;stroke-width:0.264583;stroke-linecap:butt;stroke-linejoin:miter;stroke-miterlimit:4;stroke-dasharray:none;stroke-dashoffset:0;stroke-opacity:1;-inkscape-stroke:hairline"
       id="path33"
       cx="340.10706"
       cy="170.97099"
       r="54.472488" /><path
       style="fill:#028f00;fill-opacity:1;stroke:none;stroke-width:4.77447;stroke-dasharray:none"
       d="m 312.72701,138.87959 c -5.21117,4.45028 -9.32525,10.14761 -11.88028,16.63003 h 78.52137 c -0.84267,-2.13811 -1.85496,-4.19081 -3.02029,-6.14153 h -53.16925 c -5.75699,0 -10.45161,-4.69462 -10.45161,-10.45161 0,-0.0123 2e-5,-0.0246 6e-5,-0.0369 z m 61.04641,6.66892 c -1.73699,-2.29656 -3.70358,-4.40983 -5.8656,-6.30565 h -15.65535 c -1.05484,2.1e-4 -1.90971,-0.85495 -1.90979,-1.90979 7e-5,-1.05484 0.85495,-1.91 1.90979,-1.90979 h 10.57668 c -6.55822,-4.20044 -14.3556,-6.63576 -22.72174,-6.63576 -8.27099,0 -15.98598,2.38025 -22.49733,6.49314 -0.67424,1.03838 -1.06355,2.28458 -1.06355,3.63582 0,3.70702 2.92501,6.63203 6.63203,6.63203 z"
       transform="matrix(1.0472368,0,0,1.0472368,-16.065577,-8.0761044)"
       id="path8"
       inkscape:path-effect="#path-effect11"
       inkscape:original-d="m 379.36731,155.50962 c -6.16736,-15.64861 -21.42012,-26.7221 -39.2599,-26.7221 -17.83977,0 -33.09363,11.07349 -39.2615,26.7221 z" /><path
       style="fill:#028f00;fill-opacity:1;stroke:none;stroke-width:4.77447;stroke-dasharray:none"
       d="m 365.48091,204.6736 h -13.22844 c -1.05484,2.1e-4 -1.91158,-0.85494 -1.91165,-1.90978 6e-5,-1.05485 0.85681,-1.91 1.91165,-1.90979 l 17.62824,0 c 1.73061,-1.72452 3.3123,-3.5984 4.72411,-5.60068 h -56.59798 c -5.48443,0 -10.06388,-3.74035 -11.33563,-8.81971 h -5.82448 c 6.16828,15.64824 21.42156,26.72211 39.26068,26.72211 9.52521,0 18.31266,-3.15719 25.3735,-8.48215 z m 5.82095,-18.23996 c -1.05449,2.1e-4 -1.90972,0.85521 -1.90979,1.90979 7e-5,1.05484 0.85495,1.90999 1.90979,1.90978 h 6.33363 c 0.63772,-1.23879 1.21585,-2.51324 1.73074,-3.81957 z"
       transform="matrix(1.0472368,0,0,1.0472368,-16.065577,-8.0761044)"
       id="circle2"
       inkscape:path-effect="#path-effect13;#path-effect14"
       inkscape:original-d="m 300.84654,186.43364 c 6.16829,15.64827 21.42171,26.72211 39.26087,26.72211 17.83917,0 33.0915,-11.07384 39.25927,-26.72211 z" /><path
       style="fill:#000000;fill-opacity:1;stroke:none;stroke-width:4.99999;stroke-linecap:round;stroke-dasharray:none;stroke-opacity:1;filter:url(#selectable_hidder_filter)"
       id="rect5"
       width="92.627785"
       height="52.064873"
       x="304.72473"
       y="144.33586"
       ry="12.238243"
       sodipodi:type="rect"
       d="m 395.16468,191.16406 h -22.38929 c -1.10467,2.2e-4 -1.99992,-0.89533 -2,-2 7e-5,-1.10467 0.89533,-2.00022 2,-2 h 24.2084 c 0.24026,-0.95991 0.36777,-1.96549 0.36777,-3.00195 v -27.58789 c 0,-6.77998 -5.45635,-12.23828 -12.23633,-12.23828 h -68.15234 c -6.77998,0 -12.23828,5.4583 -12.23828,12.23828 v 27.58789 c 0,6.77998 5.4583,12.23828 12.23828,12.23828 h 68.15234 c 4.17195,0 7.84272,-2.0667 10.04945,-5.23633 z"
       inkscape:path-effect="#path-effect12" /><path
       id="rect5-5"
       style="color:#000000;fill:#000000;fill-opacity:1;stroke-linecap:round;-inkscape-stroke:none;filter:url(#selectable_hidder_filter)"
       d="m 320.48759,126.63262 c -5.1312,0.90158 -9.05423,5.38688 -9.05423,10.76988 0,6.02894 4.91665,10.94507 10.94559,10.94507 h 59.73227 v -3.99975 h -59.73227 c -3.88213,0 -6.94532,-3.06319 -6.94532,-6.94532 0,-3.22346 2.11485,-5.87596 5.05396,-6.68538 z m 32.33804,7.11171 c -1.10467,-2.2e-4 -2.00032,0.89521 -2.00039,1.99988 8e-5,1.10467 0.89572,2.00009 2.00039,1.99987 h 56.23278 c 1.10467,2.2e-4 2.00032,-0.8952 2.00039,-1.99987 -7e-5,-1.10467 -0.89572,-2.0001 -2.00039,-1.99988 z"
       sodipodi:nodetypes="cssccssccccccccc" /><path
       id="path2"
       style="fill:none;stroke:#028f00;stroke-width:5;stroke-linecap:round;stroke-dasharray:none;stroke-opacity:1"
       d="m 385.76341,153.8682 c -6.92693,-18.49088 -24.75146,-31.6566 -45.65635,-31.6566 -20.90488,0 -38.7294,13.16572 -45.65633,31.6566 m 0,34.20559 c 6.92693,18.49089 24.75145,31.6566 45.65633,31.6566 20.90489,0 38.72942,-13.16571 45.65635,-31.6566"
       sodipodi:nodetypes="csccsc" /><path
       id="rect2"
       style="fill:#028f00;fill-opacity:1;stroke:none;stroke-width:5;stroke-dasharray:none;stroke-opacity:1"
       d="m 290.34388,157.77752 c -4.52295,0 -8.16417,3.53681 -8.16417,7.93007 v 10.52683 c 0,4.39326 3.64122,7.93006 8.16417,7.93006 h 99.52641 c 4.52294,0 8.16415,-3.5368 8.16415,-7.93006 v -10.52683 c 0,-4.39326 -3.64121,-7.93007 -8.16415,-7.93007 z m -2.77983,5.70285 h 11.33778 c 0.79459,-1e-5 1.43873,0.62566 1.43873,1.39746 v 0.12501 c 0,0.7718 -0.64414,1.39748 -1.43873,1.39747 h -3.67492 v 10.66385 c 0,0.7718 -0.64413,1.39747 -1.43872,1.39747 h -1.09983 c -0.79459,0 -1.43872,-0.62567 -1.43872,-1.39747 v -10.66385 h -3.68559 c -0.79459,0 -1.43872,-0.62567 -1.43872,-1.39747 v -0.12501 c 0,-0.7718 0.64414,-1.39746 1.43872,-1.39746 z m 18.63984,0 h 4.63537 c 2.03172,0 3.5193,0.33123 4.46284,0.99351 0.95044,0.66227 1.42579,1.70887 1.42579,3.14047 0,0.99008 -0.24764,1.80295 -0.74352,2.43847 -0.489,0.63552 -1.22927,1.10407 -2.22102,1.40511 0.54408,0.12041 1.02913,0.3945 1.45614,0.82264 0.43389,0.42145 0.87149,1.06346 1.31227,1.92644 l 1.52301,3.00127 c 0.29299,0.57755 -0.13966,1.25324 -0.80252,1.25335 h -1.35836 c -0.88048,-7e-5 -1.68423,-0.48666 -2.07209,-1.25445 l -1.24652,-2.46794 c -0.3788,-0.74925 -0.76459,-1.26129 -1.15716,-1.53558 -0.38568,-0.27427 -0.9026,-0.41159 -1.55,-0.41159 h -1.12569 v 4.27209 c 0,0.77179 -0.64412,1.39746 -1.4387,1.39747 h -1.09984 c -0.79459,0 -1.43872,-0.62567 -1.43872,-1.39747 v -12.18633 c 0,-0.7718 0.64414,-1.39746 1.43872,-1.39746 z m 18.66007,0 h 1.09984 c 0.79458,0 1.43872,0.62566 1.43872,1.39746 v 12.18633 c 0,0.7718 -0.64413,1.39747 -1.43872,1.39747 h -1.09984 c -0.79459,0 -1.43872,-0.62567 -1.43872,-1.39747 v -12.18633 c 0,-0.7718 0.64414,-1.39746 1.43872,-1.39746 z m 10.24075,0 h 1.09984 c 0.79459,-1e-5 1.43873,0.62566 1.43873,1.39746 v 10.66386 h 5.54468 c 0.79458,0 1.43872,0.62566 1.43872,1.39746 v 0.12501 c 0,0.7718 -0.64413,1.39747 -1.43872,1.39747 h -8.08325 c -0.79458,0 -1.43871,-0.62567 -1.43871,-1.39747 v -12.18633 c 0,-0.77179 0.64413,-1.39746 1.43871,-1.39746 z m 15.85008,0 h 1.09984 c 0.79458,0 1.43872,0.62566 1.43872,1.39746 v 10.66386 h 5.54525 c 0.79458,0 1.43872,0.62566 1.43872,1.39746 v 0.12501 c 0,0.7718 -0.64413,1.39747 -1.43872,1.39747 h -8.08381 c -0.79459,0 -1.43872,-0.62567 -1.43872,-1.39747 v -12.18633 c 0,-0.7718 0.64414,-1.39746 1.43872,-1.39746 z m 15.85064,0 h 7.85619 c 0.79458,0 1.43872,0.62566 1.43872,1.39746 v 0.12501 c 0,0.7718 -0.64413,1.39747 -1.43872,1.39747 h -5.31764 v 2.78946 h 4.91469 c 0.79459,0 1.43872,0.62567 1.43872,1.39747 v 0.12501 c 0,0.7718 -0.64413,1.39747 -1.43872,1.39747 h -4.91469 v 4.95444 c 0,0.7718 -0.64413,1.39747 -1.43871,1.39747 h -1.09984 c -0.79459,0 -1.43872,-0.62567 -1.43872,-1.39747 v -12.18633 c 0,-0.7718 0.64414,-1.39746 1.43872,-1.39746 z m 18.26724,0 h 1.86471 c 0.86461,-1e-5 1.63788,0.52264 1.93834,1.31012 l 4.71349,12.36101 c 0.24195,0.63519 -0.24184,1.31011 -0.9391,1.31013 h -1.12063 c -0.86093,0 -1.6272,-0.53017 -1.90855,-1.3205 l -0.5013,-1.40892 h -6.21909 l -0.50693,1.41002 c -0.28406,0.79011 -1.05143,1.31936 -1.91304,1.3194 h -1.12062 c -0.69727,0 -1.18107,-0.67494 -0.93912,-1.31013 l 4.7135,-12.36101 c 0.30046,-0.78748 1.07373,-1.31013 1.93834,-1.31012 z m -76.33024,2.79929 v 3.84358 h 1.67365 c 0.83336,0 1.42902,-0.15042 1.78715,-0.45144 0.36502,-0.30104 0.5474,-0.79631 0.5474,-1.48536 0,-0.68234 -0.18238,-1.17081 -0.5474,-1.46515 -0.35813,-0.29435 -0.95379,-0.44163 -1.78715,-0.44163 z m 77.26766,0.71239 -2.11763,5.96051 h 4.22512 z"
       sodipodi:nodetypes="sssssssssscsscccssccsssssscsccccccccccscccsccsssccssccsssccsssscccsssccsssssccssssssccsssscsssccscccccscccscscccccscscsccccc" /><path
       id="path34"
       style="fill:none;fill-opacity:1;stroke:#fcfffc;stroke-width:2;stroke-dasharray:none;stroke-opacity:1"
       d="m 290.34388,157.77752 c -4.52295,0 -8.16417,3.53681 -8.16417,7.93007 v 10.52683 c 0,4.39326 3.64122,7.93006 8.16417,7.93006 h 99.52641 c 4.52294,0 8.16415,-3.5368 8.16415,-7.93006 v -10.52683 c 0,-4.39326 -3.64121,-7.93007 -8.16415,-7.93007 z"
       sodipodi:nodetypes="sssssssss" /><text
       xml:space="preserve"
       style="font-style:normal;font-variant:normal;font-weight:normal;font-stretch:normal;font-size:8.17066px;font-family:C059;-inkscape-font-specification:'C059, Normal';font-variant-ligatures:normal;font-variant-caps:normal;font-variant-numeric:normal;font-variant-east-asian:normal;letter-spacing:3.175px;fill:#028f00;fill-opacity:1;stroke:none;stroke-width:4.99999;stroke-dasharray:none;stroke-opacity:1"
       x="315.41974"
       y="193.18584"
       id="text11"><tspan
         sodipodi:role="line"
         id="tspan11"
         style="font-style:normal;font-variant:normal;font-weight:normal;font-stretch:normal;font-size:8.17066px;font-family:C059;-inkscape-font-specification:'C059, Normal';font-variant-ligatures:normal;font-variant-caps:normal;font-variant-numeric:normal;font-variant-east-asian:normal;letter-spacing:3.175px;fill:#028f00;fill-opacity:1;stroke-width:5"
         x="315.41974"
         y="193.18584">STUDIO</tspan></text><path
       style="color:#000000;fill:#000000;fill-opacity:1;stroke-linecap:round;-inkscape-stroke:none;filter:url(#selectable_hidder_filter)"
       d="m 372.77482,187.16406 c -1.10467,-2.2e-4 -2.00032,0.89521 -2.00039,1.99988 8e-5,1.10467 0.89572,2.00009 2.00039,1.99987 h 62.43857 c 1.10467,2.2e-4 2.00032,-0.8952 2.00039,-1.99987 -7e-5,-1.10467 -0.89572,-2.0001 -2.00039,-1.99988 z"
       id="path11"
       sodipodi:nodetypes="ccccccc" /><path
       style="color:#000000;font-variation-settings:normal;opacity:1;vector-effect:none;fill:#535353;fill-opacity:1;stroke:none;stroke-width:5;stroke-linecap:butt;stroke-linejoin:miter;stroke-miterlimit:4;stroke-dasharray:none;stroke-dashoffset:0;stroke-opacity:1;-inkscape-stroke:none;filter:url(#selectable_hidder_filter);stop-color:#000000;stop-opacity:1"
       d="m 352.82532,204.91241 c -1.10467,-2.2e-4 -2.00032,0.89521 -2.00039,1.99988 8e-5,1.10467 0.89572,2.00009 2.00039,1.99987 h 60.2149 c 1.10467,2.2e-4 2.00032,-0.8952 2.00039,-1.99987 -7e-5,-1.10467 -0.89572,-2.0001 -2.00039,-1.99988 z"
       id="path11-6"
       sodipodi:nodetypes="ccccccc"
       transform="translate(0,-2.6458334)" /><text
       xml:space="preserve"
       style="font-style:normal;font-variant:normal;font-weight:normal;font-stretch:normal;font-size:4.94235px;font-family:C059;-inkscape-font-specification:'C059, Normal';font-variant-ligatures:normal;font-variant-caps:normal;font-variant-numeric:normal;font-variant-east-asian:normal;letter-spacing:1.01305px;fill:#ffffff;fill-opacity:1;stroke:none;stroke-width:4.99999;stroke-dasharray:none;stroke-opacity:1"
       x="324.30646"
       y="137.55925"
       id="text34"><tspan
         sodipodi:role="line"
         id="tspan34"
         style="font-style:normal;font-variant:normal;font-weight:normal;font-stretch:normal;font-size:4.94235px;font-family:C059;-inkscape-font-specification:'C059, Normal';font-variant-ligatures:normal;font-variant-caps:normal;font-variant-numeric:normal;font-variant-east-asian:normal;letter-spacing:1.01305px;fill:#ffffff;fill-opacity:1;stroke-width:5"
         x="324.30646"
         y="137.55925">DESIGN</tspan></text><text
       xml:space="preserve"
       style="font-style:normal;font-variant:normal;font-weight:normal;font-stretch:normal;font-size:4.94235px;font-family:C059;-inkscape-font-specification:'C059, Normal';font-variant-ligatures:normal;font-variant-caps:normal;font-variant-numeric:normal;font-variant-east-asian:normal;letter-spacing:0.529167px;fill:#ffffff;fill-opacity:1;stroke:none;stroke-width:4.99999;stroke-dasharray:none;stroke-opacity:1"
       x="318.31915"
       y="206.03488"
       id="text35"><tspan
         sodipodi:role="line"
         id="tspan35"
         style="font-style:normal;font-variant:normal;font-weight:normal;font-stretch:normal;font-size:4.94235px;font-family:C059;-inkscape-font-specification:'C059, Normal';font-variant-ligatures:normal;font-variant-caps:normal;font-variant-numeric:normal;font-variant-east-asian:normal;letter-spacing:0.529167px;fill:#ffffff;fill-opacity:1;stroke-width:5"
         x="318.31915"
         y="206.03488">TUTORIAL</tspan></text></g></svg>
